<svg xmlns="http://www.w3.org/2000/svg" width="86" height="24" viewBox="0 0 86 24">
  <g id="Symbols" transform="translate(-69.22 -65.59)">
    <g id="logo_x2F_all-white" transform="translate(69.22 65.59)">
      <g id="logo">
        <path id="Shape" d="M81.677,84.256,80.384,80.37H73.465l-1.371,3.885H69.22l7.6-18.666H77.5l7.055,18.666ZM77.04,70.415l-2.874,8.108h5.558Z" transform="translate(-69.22 -65.59)" fill="#fff"/>
        <path id="Shape_1_" d="M125.283,94.789v5.927H122.71V82.309h2.573v1.082a5.047,5.047,0,0,1,3.539-1.332,6.411,6.411,0,0,1,4.819,1.76,8.164,8.164,0,0,1-.019,10.046,6.4,6.4,0,0,1-5.013,1.909,7.237,7.237,0,0,1-1.974-.295,2.7,2.7,0,0,1-1.351-.69m0-9.641v7.7a2.266,2.266,0,0,0,1.018.629,4.071,4.071,0,0,0,1.526.3q4.807,0,4.8-4.935a5.027,5.027,0,0,0-1.137-3.7,4.9,4.9,0,0,0-3.639-1.157,3.364,3.364,0,0,0-1.332.344,4.588,4.588,0,0,0-1.251.778" transform="translate(-105.376 -76.716)" fill="#fff"/>
        <path id="Path" d="M165.415,75.517H163.86V73.576h1.555V70.662l2.385-.972v3.882h3.7v1.941H167.83V82.4a4.167,4.167,0,0,0,.577,2.486,2.178,2.178,0,0,0,1.886.739,4.313,4.313,0,0,0,1.886-.476l.35,2.155a12.809,12.809,0,0,1-3.254.389,3.491,3.491,0,0,1-2.7-1.222,4.435,4.435,0,0,1-1.1-3.088Z" transform="translate(-133.191 -68.361)" fill="#fff"/>
        <path id="Shape_2_" d="M202.875,94.236a5.142,5.142,0,0,1-4.316,1.792,3.68,3.68,0,0,1-2.7-1.15,3.883,3.883,0,0,1-1.141-2.829,4.268,4.268,0,0,1,1.763-3.461,6.964,6.964,0,0,1,4.491-1.416,5.125,5.125,0,0,1,1.679.321q0-3.271-2.868-3.263a4.507,4.507,0,0,0-3.386,1.18l-.992-2a5.813,5.813,0,0,1,1.857-.943,7.042,7.042,0,0,1,2.255-.4A5.673,5.673,0,0,1,203.7,83.4a5.888,5.888,0,0,1,1.309,4.245v4.829a2.469,2.469,0,0,0,1.04,2.359v1.2a4.479,4.479,0,0,1-2.152-.415,2.377,2.377,0,0,1-1.021-1.368m-.23-5.078a8.965,8.965,0,0,0-1.549-.246,4.473,4.473,0,0,0-2.913.943,2.792,2.792,0,0,0-1.124,2.207c0,1.4.807,2.093,2.44,2.093a3.983,3.983,0,0,0,3.147-1.718Z" transform="translate(-154.049 -76.714)" fill="#fff"/>
        <path id="Path_1_" d="M244.943,84.693a2.656,2.656,0,0,0-1.549-.548,2.76,2.76,0,0,0-2.181,1.183,4.536,4.536,0,0,0-.927,2.887v7.833H237.93V82.308h2.349V84.5a4.113,4.113,0,0,1,3.795-2.453,10.245,10.245,0,0,1,1.857.23Z" transform="translate(-183.258 -76.715)" fill="#fff"/>
        <path id="Path_2_" d="M278.528,82.242c-.632,0-.651-.146,0-.314l9.109-2.466a1.557,1.557,0,0,0,1.073-1.406V70.294c0-.606-.392-.781-.881-.386L267.008,86.98c-.489.4-.363.716.279.716H287.56a1.172,1.172,0,0,0,.813-.324,1.08,1.08,0,0,0,.337-.781V83.464a1.157,1.157,0,0,0-1.15-1.086Z" transform="translate(-202.711 -68.366)" fill="#fff"/>
      </g>
    </g>
  </g>
</svg>
