<svg xmlns="http://www.w3.org/2000/svg" width="155.042" height="24" viewBox="0 0 155.042 24">
  <g id="_60076138fa2619fe5bc7e7e5_bae-systems" data-name="60076138fa2619fe5bc7e7e5_bae-systems" transform="translate(-12.4 -53.7)">
    <path id="Path_38698" data-name="Path 38698" d="M12.4,53.7H167.442v24H12.4Z" transform="translate(0)" fill="#fff"/>
    <path id="Path_38699" data-name="Path 38699" d="M80.676,64.4a6.783,6.783,0,0,0-3.389.773,2.937,2.937,0,0,0-1.493,2.513c0,2.368,2.642,2.851,4.824,3.238.517.1,1.436.193,1.436.821,0,.532-.919.58-1.378.58a1.975,1.975,0,0,1-2.125-1.208l-3.331.532.057.193.057.193.057.193.115.193.115.193.115.145.115.145.115.145.115.145.115.145.172.145.172.145.172.1.172.1.172.1.172.1.172.1.172.1.172.1.172.048.172.048.23.048.23.048.23.048.23.048.23.048.23.048h1.149c2.47,0,5.284-.966,5.284-3.334a2.742,2.742,0,0,0-1.78-2.561,15.743,15.743,0,0,0-3.331-.773c-.459-.1-1.321-.193-1.321-.725s.689-.628,1.149-.628a1.793,1.793,0,0,1,1.9,1.015l2.987-.773C84.7,65.125,82.743,64.4,80.676,64.4Zm26.3,0a6.783,6.783,0,0,0-3.389.773,3.066,3.066,0,0,0-1.493,2.513c0,2.368,2.642,2.851,4.824,3.238.517.1,1.436.193,1.436.821,0,.532-.919.58-1.378.58a1.975,1.975,0,0,1-2.125-1.208l-3.331.532.057.193.057.193.057.193.115.193.115.193.115.145.115.145.115.145.115.145.115.145.172.145.172.145.172.1.172.1.172.1.172.1.172.1.172.1.172.1.172.048.172.048.23.048.23.048.23.048.23.048.23.048.23.048h1.149c2.47,0,5.284-.966,5.284-3.334a2.829,2.829,0,0,0-1.78-2.561,15.743,15.743,0,0,0-3.331-.773c-.459-.1-1.321-.193-1.321-.725s.689-.628,1.149-.628a1.793,1.793,0,0,1,1.9,1.015l2.987-.773C111,65.125,109.048,64.4,106.98,64.4Zm55.94,0a6.783,6.783,0,0,0-3.389.773,3.066,3.066,0,0,0-1.493,2.513c0,2.368,2.642,2.851,4.824,3.238.517.1,1.436.193,1.436.821,0,.532-.919.58-1.378.58a1.975,1.975,0,0,1-2.125-1.208l-3.331.532.057.193.057.193.057.193.115.193.115.193.115.145.115.145.115.145.115.145.115.145.172.145.172.145.172.1.172.1.172.1.172.1.172.1.172.1.172.1.172.048.172.048.23.048.23.048.23.048.23.048.23.048.23.048h1.149c2.47,0,5.284-.966,5.284-3.334a2.771,2.771,0,0,0-1.723-2.561,15.743,15.743,0,0,0-3.331-.773c-.459-.1-1.321-.193-1.321-.725s.689-.628,1.149-.628a1.793,1.793,0,0,1,1.9,1.015l2.987-.773C166.941,65.125,164.931,64.4,162.921,64.4ZM29.1,64.545v9.906h5.4a6.241,6.241,0,0,0,3.274-.58,2.593,2.593,0,0,0,1.206-2.32,2.369,2.369,0,0,0-2.3-2.271,2.33,2.33,0,0,0,2.01-2.175,2.385,2.385,0,0,0-1.264-2.078,5,5,0,0,0-2.527-.483Zm16.828,0L42.252,74.5h2.929l.747-1.933h3.159l.689,1.933h3.676l-3.733-9.955Zm11.372,0v9.906h8.845V72.083H60.8V70.489h4.308V68.266H60.8v-1.45h5.341V64.545Zm30.9,0L92.162,70.3v4.2h3.5V70.3l3.676-5.751h-3.1l-1.953,3.286L92.22,64.545Zm27.109,0v2.368h2.47v7.538h3.446v-7.49h2.412V64.593h-8.328Zm12.348,0v9.906H136.5V72.083H131.16V70.489h4.308V68.266H131.16v-1.45H136.5V64.545Zm13.267,0v9.906h2.7V67.4l2.24,7.1h2.3l2.125-7.1v7.1h3.389V64.545h-4.767L147.3,69.812l-1.723-5.267ZM32.431,66.671h1.436c.689,0,1.436.1,1.436.821a.736.736,0,0,1-.345.628,1.781,1.781,0,0,1-1.034.193H32.489V66.671Zm15.048.821.976,2.9H46.5Zm-15.048,3h1.436a2.424,2.424,0,0,1,1.034.145.862.862,0,0,1,.574.773.758.758,0,0,1-.459.677,1.876,1.876,0,0,1-1.034.193H32.431Z" transform="translate(-8.63 -3.814)" fill="#2f3239"/>
  </g>
</svg>
