<svg xmlns="http://www.w3.org/2000/svg" width="193.155" height="23.496" viewBox="0 0 193.155 23.496">
  <g id="_5fc960fc2ce3ef1d2194647a_Honda" data-name="5fc960fc2ce3ef1d2194647a_Honda" transform="translate(-851.174 680.557)">
    <path id="Path_38693" data-name="Path 38693" d="M1150.134-667.66h8.589l-4.332-6.737ZM1135.957-657.1v-2.933l2.989-.336a2.262,2.262,0,0,0,1.607-1.28l7.459-12.019a1.141,1.141,0,0,0-.766-1.864l-3.918-.46v-2.958h17a2.4,2.4,0,0,1,1.946,1.206l9.932,15.027c.779,1.193,1.394,2.15,2.386,2.275l3.127.348v3.008H1158.6v-2.958l2.423-.3c1.168-.124,2.122-.646,1.168-2.063l-.9-1.38H1147.71l-1.042,1.678c-.653,1.032,0,1.628,1,1.765l2.423.3v2.958h-14.139Z" transform="translate(-133.392 -0.744)" fill="#fff"/>
    <path id="Path_38694" data-name="Path 38694" d="M1090.276-661.309h-5.638v-13.473h5.638c5.375,0,7.635,1.243,7.635,6.737-.012,5.543-2.26,6.737-7.635,6.737m3.378-17.637h-21.862v2.958l2.737.273a1.648,1.648,0,0,1,1.444,1.864v11.758a1.534,1.534,0,0,1-1.256,1.715l-2.938.373v2.871l21.875.012c10.058,0,14.39-4.847,14.39-11.249,0-5.73-4.332-10.577-14.39-10.577" transform="translate(-103.282 -0.744)" fill="#fff"/>
    <path id="Path_38695" data-name="Path 38695" d="M851.174-657.084h17.693v-2.921l-3.026-.336c-.691-.087-1.394-.51-1.394-1.976v-3.518h13.612v3.344c0,.982-.176,1.927-1.344,2.063l-3.077.348v3.008h17.693v-3.008l-3.127-.348c-.6-.087-1.293-.559-1.293-1.8V-673.6c0-1.156.427-1.927,1.344-2.014l3.077-.348v-2.958H873.639V-676l3.077.385c1.042.124,1.344.945,1.344,2.014v3.393H864.447v-3.431c0-1.293.515-1.889,1.432-1.976l2.989-.348v-2.958H851.224v2.958l2.951.348c1.168.124,1.469.982,1.432,2.1v11.075c0,1.243-.352,1.976-1.469,2.1l-2.951.336v2.921Z" transform="translate(0 -0.755)" fill="#fff"/>
    <path id="Path_38696" data-name="Path 38696" d="M945.448-676.352c-5.023,0-7.886,1.853-7.886,7.513,0,5.759,2.863,7.612,7.886,7.612s7.9-1.853,7.9-7.612c-.013-5.659-2.876-7.513-7.9-7.513m-18.032,7.475c0-6.866,5.588-11.68,18.082-11.68,12.406,0,17.994,4.814,17.994,11.68,0,7.04-5.588,11.817-17.994,11.817-12.494,0-18.082-4.764-18.082-11.817" transform="translate(-35.694 0)" fill="#fff"/>
    <path id="Path_38697" data-name="Path 38697" d="M996.284-657.084h14.139v-2.921l-3.039-.336a1.624,1.624,0,0,1-1.394-1.8v-11.112l11.753,15.326a2.381,2.381,0,0,0,1.821.858h11.1V-673.64c0-.783.214-1.84,1.344-1.976l3.077-.348v-2.958h-14.127V-676l3.077.385c1.092.124,1.344,1.032,1.344,2.063v10.814l-11.666-15.239a2.184,2.184,0,0,0-1.821-.945H996.284v2.958l2.951.348c1.042.149,1.432.671,1.432,2.1v11.075c0,1.318-.364,1.951-1.469,2.1l-2.9.336v2.921Z" transform="translate(-67.952 -0.755)" fill="#fff"/>
  </g>
</svg>
