<svg xmlns="http://www.w3.org/2000/svg" width="150.852" height="24" viewBox="0 0 150.852 24">
  <g id="Ebene_x0020_1" transform="translate(-23.97 -71.99)">
    <path id="Path_38686" data-name="Path 38686" d="M350.408,72.834v4.491A18.227,18.227,0,0,0,344.137,76a5.039,5.039,0,0,0-2.595.583,1.688,1.688,0,0,0-.982,1.427c0,.75.731,1.414,2.21,2.014l4.264,2.057c3.447,1.628,5.155,3.788,5.155,6.5a6.327,6.327,0,0,1-2.738,5.39,12.032,12.032,0,0,1-7.309,2.014,34.676,34.676,0,0,1-3.789-.184,29.559,29.559,0,0,1-3.836-.716v-4.7a22.752,22.752,0,0,0,7.153,1.324c2.565,0,3.836-.737,3.836-2.22,0-.741-.523-1.337-1.583-1.8l-4.736-2a9.784,9.784,0,0,1-3.9-2.854,6.436,6.436,0,0,1-1.263-3.921,5.941,5.941,0,0,1,2.63-5.026,11.757,11.757,0,0,1,7-1.9,25.9,25.9,0,0,1,3.235.236c1.22.163,2.387.364,3.512.608Z" transform="translate(-177.369)" fill="#fff" fill-rule="evenodd"/>
    <path id="Path_38687" data-name="Path 38687" d="M40.34,72.834v4.491A18.206,18.206,0,0,0,34.073,76a5.039,5.039,0,0,0-2.595.583A1.689,1.689,0,0,0,30.5,78.01c0,.75.744,1.414,2.219,2.014l4.264,2.057c3.434,1.628,5.147,3.788,5.147,6.5a6.34,6.34,0,0,1-2.729,5.39,12.068,12.068,0,0,1-7.318,2.014,34.816,34.816,0,0,1-3.793-.184,29.964,29.964,0,0,1-3.836-.716v-4.7A22.835,22.835,0,0,0,31.6,91.714c2.565,0,3.836-.737,3.836-2.22,0-.741-.519-1.337-1.57-1.8l-4.736-2a9.6,9.6,0,0,1-3.9-2.854,6.327,6.327,0,0,1-1.263-3.921A5.924,5.924,0,0,1,26.6,73.888a11.7,11.7,0,0,1,6.989-1.9,26.151,26.151,0,0,1,3.248.236Q38.651,72.47,40.34,72.834Z" fill="#fff" fill-rule="evenodd"/>
    <path id="Path_38688" data-name="Path 38688" d="M73.11,72.98h6.946V96.128H73.11Z" transform="translate(-27.887 -0.562)" fill="#fff" fill-rule="evenodd"/>
    <path id="Path_38689" data-name="Path 38689" d="M118.587,72.98v4.279H108.272v5.132h8.948V86.25h-8.948v5.389H118.8v4.489H101.59V72.98Z" transform="translate(-44.4 -0.562)" fill="#fff" fill-rule="evenodd"/>
    <path id="Path_38690" data-name="Path 38690" d="M178.627,72.98V96.13h-6.483V80.862l-6.725,15.482h-4l-6.466-15.482V96.13H150.26V72.98h8.473l5.787,14.171,6.055-14.171Z" transform="translate(-72.291 -0.562)" fill="#fff" fill-rule="evenodd"/>
    <path id="Path_38691" data-name="Path 38691" d="M245.241,72.98v4.279H234.978v5.132h8.948V86.25h-8.948v5.389h10.475v4.489H228.24V72.98Z" transform="translate(-116.845 -0.562)" fill="#fff" fill-rule="evenodd"/>
    <path id="Path_38692" data-name="Path 38692" d="M297.224,72.98V96.128h-7.365l-8.265-14.847V96.128H276.91V72.98h7.582l8.049,14.594V72.98Z" transform="translate(-144.953 -0.562)" fill="#fff" fill-rule="evenodd"/>
  </g>
</svg>
